<svg id="fi_15190434" enable-background="new 0 0 512.009 512.009" viewBox="0 0 512.009 512.009" xmlns="http://www.w3.org/2000/svg"><g><path d="m437.027 74.982c-48.353-48.353-112.641-74.982-181.023-74.982s-132.669 26.629-181.022 74.982-74.982 112.641-74.982 181.022 26.629 132.669 74.982 181.022 112.641 74.982 181.022 74.982 132.669-26.629 181.022-74.982 74.982-112.641 74.982-181.022-26.628-132.669-74.981-181.022zm23.212 84.278h-89.776c-5.588-29.396-13.755-56.462-24.243-79.816-6.762-15.058-14.305-28.127-22.478-39.076 60.253 18.968 109.699 62.545 136.497 118.892zm21.77 96.744c0 23.224-3.521 45.641-10.058 66.745h-96.784c2.685-21.493 4.071-43.897 4.071-66.745s-1.386-45.252-4.071-66.745h96.784c6.536 21.105 10.058 43.522 10.058 66.745zm-226.005 226.005c-22.322 0-45.23-22.501-62.85-61.734-8.897-19.811-15.979-42.655-21.06-67.526h167.819c-5.081 24.871-12.163 47.715-21.06 67.526-17.618 39.233-40.526 61.734-62.849 61.734zm-88.934-159.26c-2.833-21.351-4.3-43.778-4.3-66.745s1.467-45.394 4.3-66.745h177.869c2.833 21.351 4.3 43.778 4.3 66.745s-1.467 45.394-4.3 66.745zm-137.07-66.745c0-23.224 3.521-45.641 10.058-66.745h96.784c-2.685 21.493-4.071 43.897-4.071 66.745s1.386 45.252 4.071 66.745h-96.784c-6.537-21.104-10.058-43.521-10.058-66.745zm226.004-226.004c22.322 0 45.23 22.501 62.85 61.734 8.897 19.811 15.979 42.655 21.06 67.526h-167.819c5.081-24.871 12.163-47.715 21.06-67.526 17.619-39.233 40.527-61.734 62.849-61.734zm-67.738 10.368c-8.173 10.949-15.716 24.018-22.478 39.076-10.488 23.354-18.655 50.42-24.243 79.816h-89.776c26.799-56.347 76.244-99.924 136.497-118.892zm-136.497 312.381h89.776c5.588 29.396 13.755 56.462 24.243 79.816 6.762 15.058 14.305 28.127 22.478 39.076-60.253-18.968-109.698-62.546-136.497-118.892zm271.974 118.892c8.173-10.949 15.716-24.018 22.478-39.076 10.488-23.354 18.655-50.42 24.243-79.816h89.776c-26.799 56.346-76.245 99.924-136.497 118.892z"></path></g><g></g><g></g><g></g><g></g><g></g><g></g><g></g><g></g><g></g><g></g><g></g><g></g><g></g><g></g><g></g></svg>