<svg xmlns="http://www.w3.org/2000/svg" fill="none" viewBox="0 0 24 24" id="Tensorflow--Streamline-Svg-Logos" height="24" width="24"><desc>Tensorflow Streamline Icon: https://streamlinehq.com</desc><path fill="#e55b2d" d="M13.565425 3.865v3.61555L19.82725 11.0961V7.48055L13.565425 3.865ZM1.0413825 7.48055v3.61555L4.1723 12.9035V9.288325L1.0413825 7.48055Zm9.3927425 1.807775 -3.1309 1.807775v10.845925l3.1309 1.807775V16.519075l3.1313 1.807775V14.7113L10.434125 12.9035V9.288325Z" stroke-width="0.25"></path><path fill="#ed8e24" d="M13.565375 3.865 4.17225 9.288325V12.9035l6.261825 -3.615175V12.9035l3.1313 -1.8074V3.865Zm9.393125 1.807775 -3.1313 1.807775v3.61555l3.1313 -1.807775V5.672775ZM16.696275 12.9035l-3.1309 1.8078v3.61555l3.1309 -1.807775V12.9035ZM13.565375 18.32685l-3.1313 -1.807775v7.230725l3.1313 -1.807775V18.32685Z" stroke-width="0.25"></path><path fill="#f8bf3c" d="M13.565425 0.25 1.0413825 7.48075l3.1309175 1.807775 9.393125 -5.42335L19.82725 7.48075l3.1313 -1.807775L13.565425 0.25Zm0 10.8463 -3.1313 1.8074 3.1313 1.807775 3.130925 -1.807775 -3.130925 -1.8074Z" stroke-width="0.25"></path></svg>