<svg width="800" height="400" viewBox="0 0 800 400" xmlns="http://www.w3.org/2000/svg"><mask id="satori_om-id"><rect x="0" y="0" width="800" height="400" fill="#fff"/></mask><rect x="0" y="0" width="800" height="400" fill="white"/><mask id="satori_om-id-0"><rect x="42" y="42" width="211" height="24" fill="#fff"/></mask><mask id="satori_om-id-0-0"><rect x="42" y="42" width="24" height="24" fill="#fff"/></mask><rect x="42" y="42" width="24" height="24" fill="black"/><mask id="satori_om-id-0-1"><rect x="74" y="42" width="179" height="24" fill="#fff"/></mask><path fill="black" d="M80.6 61.4L77.4 61.4L74.4 50.5L77.5 50.5L79.1 57.8L79.2 57.8L81.0 50.5L84.0 50.5L85.8 57.8L85.9 57.8L87.6 50.5L90.6 50.5L87.6 61.4L84.4 61.4L82.6 54.5L82.4 54.5L80.6 61.4ZM95.0 61.6L95.0 61.6Q94.0 61.6 93.1 61.2Q92.3 60.8 91.9 60.1Q91.4 59.4 91.4 58.3L91.4 58.3Q91.4 57.4 91.7 56.8Q92.0 56.2 92.6 55.8Q93.2 55.4 93.9 55.2Q94.7 55.0 95.5 55.0L95.5 55.0Q96.4 54.9 97.0 54.8Q97.6 54.7 97.9 54.5Q98.1 54.3 98.1 54.0L98.1 54.0L98.1 53.9Q98.1 53.3 97.7 52.9Q97.3 52.5 96.5 52.5L96.5 52.5Q95.7 52.5 95.2 52.9Q94.7 53.3 94.6 53.8L94.6 53.8L91.8 53.6Q92.0 52.6 92.6 51.8Q93.2 51.1 94.2 50.7Q95.2 50.3 96.5 50.3L96.5 50.3Q97.4 50.3 98.3 50.5Q99.1 50.8 99.7 51.2Q100.4 51.6 100.8 52.3Q101.1 53.0 101.1 54.0L101.1 54.0L101.1 61.4L98.3 61.4L98.3 59.9L98.2 59.9Q97.9 60.4 97.5 60.8Q97.0 61.1 96.4 61.4Q95.8 61.6 95.0 61.6ZM95.9 59.5L95.9 59.5Q96.5 59.5 97.0 59.2Q97.6 59.0 97.8 58.5Q98.1 58.1 98.1 57.5L98.1 57.5L98.1 56.3Q98.0 56.4 97.8 56.5Q97.5 56.6 97.2 56.6Q96.9 56.7 96.6 56.7Q96.3 56.8 96.0 56.8L96.0 56.8Q95.5 56.9 95.1 57.1Q94.7 57.2 94.5 57.5Q94.3 57.8 94.3 58.2L94.3 58.2Q94.3 58.8 94.7 59.2Q95.2 59.5 95.9 59.5ZM106.2 55.1L106.2 55.1L106.2 61.4L103.2 61.4L103.2 46.8L106.1 46.8L106.1 52.4L106.2 52.4Q106.6 51.4 107.4 50.9Q108.3 50.3 109.5 50.3L109.5 50.3Q110.6 50.3 111.5 50.8Q112.3 51.3 112.8 52.2Q113.3 53.2 113.3 54.4L113.3 54.4L113.3 61.4L110.2 61.4L110.2 55.0Q110.3 54.0 109.7 53.4Q109.2 52.8 108.3 52.8L108.3 52.8Q107.7 52.8 107.2 53.1Q106.7 53.4 106.5 53.9Q106.2 54.4 106.2 55.1ZM116.8 65.5L116.8 65.5Q116.2 65.5 115.7 65.4Q115.2 65.3 114.9 65.2L114.9 65.2L115.6 62.9Q116.1 63.1 116.6 63.1Q117.0 63.1 117.3 62.9Q117.6 62.7 117.8 62.1L117.8 62.1L118.0 61.7L114.1 50.5L117.3 50.5L119.5 58.5L119.6 58.5L121.9 50.5L125.1 50.5L120.9 62.6Q120.6 63.4 120.0 64.1Q119.5 64.7 118.7 65.1Q117.9 65.5 116.8 65.5ZM133.3 56.7L133.3 56.7L133.3 50.5L136.4 50.5L136.4 61.4L133.5 61.4L133.5 59.4L133.3 59.4Q133.0 60.4 132.1 60.9Q131.3 61.5 130.0 61.5L130.0 61.5Q128.9 61.5 128.1 61.0Q127.3 60.5 126.8 59.6Q126.3 58.7 126.3 57.4L126.3 57.4L126.3 50.5L129.4 50.5L129.4 56.9Q129.4 57.8 129.9 58.4Q130.4 59.0 131.3 59.0L131.3 59.0Q131.8 59.0 132.3 58.7Q132.8 58.5 133.1 58.0Q133.3 57.5 133.3 56.7ZM141.5 61.4L138.5 61.4L138.5 50.5L141.5 50.5L141.5 61.4ZM140.0 49.1L140.0 49.1Q139.3 49.1 138.8 48.6Q138.3 48.2 138.3 47.5L138.3 47.5Q138.3 46.9 138.8 46.4Q139.3 46.0 140.0 46.0L140.0 46.0Q140.7 46.0 141.1 46.4Q141.6 46.9 141.6 47.5L141.6 47.5Q141.6 48.2 141.1 48.6Q140.7 49.1 140.0 49.1ZM148.3 55.9L146.3 58.2L146.3 54.6L146.8 54.6L150.3 50.5L153.7 50.5L149.0 55.9L148.3 55.9ZM146.6 61.4L143.6 61.4L143.6 46.8L146.6 46.8L146.6 61.4ZM153.9 61.4L150.4 61.4L147.2 56.6L149.2 54.5L153.9 61.4ZM157.9 61.4L154.9 61.4L154.9 46.8L158.0 46.8L158.0 52.3L158.1 52.3Q158.3 51.9 158.6 51.4Q159.0 50.9 159.6 50.6Q160.3 50.3 161.2 50.3L161.2 50.3Q162.4 50.3 163.4 50.9Q164.4 51.6 165.0 52.8Q165.6 54.1 165.6 55.9L165.6 55.9Q165.6 57.8 165.0 59.0Q164.4 60.3 163.4 60.9Q162.4 61.6 161.2 61.6L161.2 61.6Q160.3 61.6 159.7 61.3Q159.1 61.0 158.7 60.5Q158.3 60.1 158.1 59.6L158.1 59.6L157.9 59.6L157.9 61.4ZM157.9 55.9L157.9 55.9Q157.9 56.9 158.2 57.6Q158.5 58.3 159.0 58.7Q159.5 59.1 160.2 59.1L160.2 59.1Q160.9 59.1 161.5 58.7Q162.0 58.3 162.2 57.6Q162.5 56.9 162.5 55.9L162.5 55.9Q162.5 55.0 162.2 54.3Q162.0 53.5 161.5 53.1Q161.0 52.7 160.2 52.7L160.2 52.7Q159.5 52.7 159.0 53.1Q158.5 53.5 158.2 54.2Q157.9 54.9 157.9 55.9ZM170.4 61.6L170.4 61.6Q169.3 61.6 168.5 61.2Q167.7 60.8 167.2 60.1Q166.8 59.4 166.8 58.3L166.8 58.3Q166.8 57.4 167.1 56.8Q167.4 56.2 168.0 55.8Q168.6 55.4 169.3 55.2Q170.1 55.0 170.9 55.0L170.9 55.0Q171.8 54.9 172.4 54.8Q173.0 54.7 173.2 54.5Q173.5 54.3 173.5 54.0L173.5 54.0L173.5 53.9Q173.5 53.3 173.1 52.9Q172.7 52.5 171.9 52.5L171.9 52.5Q171.1 52.5 170.6 52.9Q170.1 53.3 169.9 53.8L169.9 53.8L167.2 53.6Q167.4 52.6 168.0 51.8Q168.6 51.1 169.6 50.7Q170.6 50.3 171.9 50.3L171.9 50.3Q172.8 50.3 173.6 50.5Q174.5 50.8 175.1 51.2Q175.8 51.6 176.2 52.3Q176.5 53.0 176.5 54.0L176.5 54.0L176.5 61.4L173.7 61.4L173.7 59.9L173.6 59.9Q173.3 60.4 172.9 60.8Q172.4 61.1 171.8 61.4Q171.2 61.6 170.4 61.6ZM171.3 59.5L171.3 59.5Q171.9 59.5 172.4 59.2Q172.9 59.0 173.2 58.5Q173.5 58.1 173.5 57.5L173.5 57.5L173.5 56.3Q173.4 56.4 173.1 56.5Q172.9 56.6 172.6 56.6Q172.3 56.7 172.0 56.7Q171.7 56.8 171.4 56.8L171.4 56.8Q170.9 56.9 170.5 57.1Q170.1 57.2 169.9 57.5Q169.7 57.8 169.7 58.2L169.7 58.2Q169.7 58.8 170.1 59.2Q170.6 59.5 171.3 59.5ZM178.6 46.8L181.6 46.8L181.6 61.4L178.6 61.4L178.6 46.8ZM185.5 61.6L185.5 61.6Q184.7 61.6 184.2 61.1Q183.7 60.6 183.7 59.9L183.7 59.9Q183.7 59.2 184.2 58.7Q184.7 58.2 185.5 58.2L185.5 58.2Q186.1 58.2 186.6 58.7Q187.2 59.2 187.2 59.9L187.2 59.9Q187.2 60.3 186.9 60.7Q186.7 61.1 186.3 61.3Q185.9 61.6 185.5 61.6ZM194.7 61.4L191.5 61.4L188.5 50.5L191.6 50.5L193.2 57.8L193.3 57.8L195.1 50.5L198.1 50.5L199.9 57.8L200.0 57.8L201.7 50.5L204.7 50.5L201.8 61.4L198.5 61.4L196.7 54.5L196.5 54.5L194.7 61.4ZM210.7 61.6L210.7 61.6Q209.0 61.6 207.8 60.9Q206.6 60.2 205.9 59.0Q205.3 57.7 205.3 56.0L205.3 56.0Q205.3 54.3 205.9 53.0Q206.6 51.7 207.8 51.0Q209.0 50.3 210.6 50.3L210.6 50.3Q211.7 50.3 212.6 50.7Q213.5 51.0 214.2 51.7Q214.9 52.4 215.3 53.4Q215.7 54.5 215.7 55.9L215.7 55.9L215.7 56.7L206.5 56.7L206.5 54.8L212.9 54.8Q212.9 54.2 212.6 53.7Q212.3 53.2 211.8 52.9Q211.3 52.6 210.6 52.6L210.6 52.6Q209.9 52.6 209.4 52.9Q208.9 53.2 208.6 53.7Q208.3 54.3 208.3 54.9L208.3 54.9L208.3 56.7Q208.3 57.5 208.6 58.1Q208.9 58.7 209.4 59.0Q210.0 59.3 210.7 59.3L210.7 59.3Q211.3 59.3 211.7 59.2Q212.1 59.0 212.4 58.8Q212.7 58.5 212.8 58.1L212.8 58.1L215.6 58.3Q215.4 59.3 214.8 60.0Q214.1 60.8 213.1 61.2Q212.0 61.6 210.7 61.6ZM220.4 61.4L217.4 61.4L217.4 46.8L220.4 46.8L220.4 52.3L220.5 52.3Q220.7 51.9 221.1 51.4Q221.5 50.9 222.1 50.6Q222.7 50.3 223.6 50.3L223.6 50.3Q224.8 50.3 225.8 50.9Q226.8 51.6 227.5 52.8Q228.1 54.1 228.1 55.9L228.1 55.9Q228.1 57.8 227.5 59.0Q226.9 60.3 225.9 60.9Q224.9 61.6 223.6 61.6L223.6 61.6Q222.8 61.6 222.1 61.3Q221.5 61.0 221.1 60.5Q220.7 60.1 220.5 59.6L220.5 59.6L220.4 59.6L220.4 61.4ZM220.4 55.9L220.4 55.9Q220.4 56.9 220.6 57.6Q220.9 58.3 221.4 58.7Q221.9 59.1 222.7 59.1L222.7 59.1Q223.4 59.1 223.9 58.7Q224.4 58.3 224.7 57.6Q225.0 56.9 225.0 55.9L225.0 55.9Q225.0 55.0 224.7 54.3Q224.4 53.5 223.9 53.1Q223.4 52.7 222.7 52.7L222.7 52.7Q221.9 52.7 221.4 53.1Q220.9 53.5 220.6 54.2Q220.4 54.9 220.4 55.9ZM231.5 61.6L231.5 61.6Q230.8 61.6 230.3 61.1Q229.8 60.6 229.8 59.9L229.8 59.9Q229.8 59.2 230.3 58.7Q230.8 58.2 231.5 58.2L231.5 58.2Q232.2 58.2 232.7 58.7Q233.2 59.2 233.2 59.9L233.2 59.9Q233.2 60.3 233.0 60.7Q232.7 61.1 232.4 61.3Q232.0 61.6 231.5 61.6ZM238.4 61.4L235.4 61.4L235.4 50.5L238.4 50.5L238.4 61.4ZM236.9 49.1L236.9 49.1Q236.2 49.1 235.7 48.6Q235.3 48.2 235.3 47.5L235.3 47.5Q235.3 46.9 235.7 46.4Q236.2 46.0 236.9 46.0L236.9 46.0Q237.6 46.0 238.1 46.4Q238.5 46.9 238.5 47.5L238.5 47.5Q238.5 48.2 238.1 48.6Q237.6 49.1 236.9 49.1ZM244.5 61.6L244.5 61.6Q243.3 61.6 242.3 60.9Q241.3 60.3 240.7 59.0Q240.1 57.8 240.1 55.9L240.1 55.9Q240.1 54.1 240.7 52.8Q241.3 51.6 242.3 50.9Q243.3 50.3 244.5 50.3L244.5 50.3Q245.4 50.3 246.0 50.6Q246.7 50.9 247.0 51.4Q247.4 51.9 247.6 52.3L247.6 52.3L247.7 52.3L247.7 46.8L250.7 46.8L250.7 61.4L247.7 61.4L247.7 59.6L247.6 59.6Q247.4 60.1 247.0 60.5Q246.6 61.0 246.0 61.3Q245.4 61.6 244.5 61.6ZM245.5 59.1L245.5 59.1Q246.2 59.1 246.7 58.7Q247.2 58.3 247.5 57.6Q247.8 56.9 247.8 55.9L247.8 55.9Q247.8 54.9 247.5 54.2Q247.2 53.5 246.7 53.1Q246.2 52.7 245.5 52.7L245.5 52.7Q244.7 52.7 244.2 53.1Q243.7 53.5 243.4 54.3Q243.2 55.0 243.2 55.9L243.2 55.9Q243.2 56.9 243.5 57.6Q243.7 58.3 244.2 58.7Q244.7 59.1 245.5 59.1Z "/><mask id="satori_om-id-1"><rect x="144" y="135" width="512" height="130" fill="#fff"/></mask><rect x="144" y="135" width="512" height="130" fill="black"/><mask id="satori_om-id-1-0"><rect x="194" y="155" width="412" height="56" fill="#fff"/></mask><path fill="white" d="M209.1 197.5L203.1 197.5L194.8 168.5L201.5 168.5L206.3 188.7L206.5 188.7L211.8 168.5L217.6 168.5L222.9 188.7L223.1 188.7L228.0 168.5L234.7 168.5L226.4 197.5L220.4 197.5L214.8 178.5L214.6 178.5L209.1 197.5ZM241.4 198.0L241.4 198.0Q239.3 198.0 237.7 197.2Q236.0 196.5 235.1 195.1Q234.1 193.6 234.1 191.5L234.1 191.5Q234.1 189.6 234.8 188.4Q235.5 187.2 236.6 186.4Q237.8 185.7 239.3 185.3Q240.7 184.9 242.3 184.7L242.3 184.7Q244.2 184.5 245.4 184.4Q246.6 184.2 247.1 183.8Q247.6 183.5 247.6 182.8L247.6 182.8L247.6 182.7Q247.6 181.3 246.8 180.6Q245.9 179.9 244.4 179.9L244.4 179.9Q242.8 179.9 241.8 180.6Q240.8 181.3 240.5 182.4L240.5 182.4L234.9 181.9Q235.3 179.9 236.6 178.5Q237.8 177.0 239.8 176.2Q241.8 175.4 244.4 175.4L244.4 175.4Q246.2 175.4 247.9 175.9Q249.6 176.3 250.9 177.2Q252.2 178.1 252.9 179.5Q253.7 180.9 253.7 182.8L253.7 182.8L253.7 197.5L247.9 197.5L247.9 194.5L247.8 194.5Q247.2 195.5 246.4 196.3Q245.5 197.1 244.2 197.5Q243.0 198.0 241.4 198.0ZM243.1 193.8L243.1 193.8Q244.5 193.8 245.5 193.2Q246.5 192.7 247.1 191.8Q247.7 190.9 247.7 189.7L247.7 189.7L247.7 187.4Q247.4 187.6 246.9 187.8Q246.4 187.9 245.8 188.0Q245.2 188.2 244.6 188.2Q244.0 188.3 243.5 188.4L243.5 188.4Q242.4 188.6 241.6 188.9Q240.8 189.3 240.4 189.8Q239.9 190.4 239.9 191.3L239.9 191.3Q239.9 192.5 240.8 193.1Q241.7 193.8 243.1 193.8ZM264.1 184.9L264.1 184.9L264.1 197.5L258.1 197.5L258.1 168.5L263.9 168.5L263.9 179.6L264.2 179.6Q264.9 177.6 266.6 176.5Q268.2 175.4 270.7 175.4L270.7 175.4Q273.0 175.4 274.7 176.4Q276.4 177.4 277.3 179.3Q278.3 181.1 278.3 183.7L278.3 183.7L278.3 197.5L272.2 197.5L272.2 184.7Q272.2 182.7 271.2 181.6Q270.2 180.5 268.3 180.5L268.3 180.5Q267.1 180.5 266.1 181.0Q265.2 181.5 264.7 182.5Q264.1 183.5 264.1 184.9ZM285.7 205.7L285.7 205.7Q284.5 205.7 283.5 205.5Q282.5 205.4 281.8 205.1L281.8 205.1L283.2 200.6Q284.3 200.9 285.1 200.9Q286.0 201.0 286.6 200.5Q287.3 200.1 287.7 199.1L287.7 199.1L288.0 198.2L280.2 175.7L286.5 175.7L291.1 191.8L291.3 191.8L295.9 175.7L302.3 175.7L293.8 199.9Q293.2 201.7 292.1 203.0Q291.1 204.3 289.5 205.0Q287.9 205.7 285.7 205.7ZM319.0 188.3L319.0 188.3L319.0 175.7L325.1 175.7L325.1 197.5L319.3 197.5L319.3 193.6L319.0 193.6Q318.3 195.5 316.6 196.7Q314.9 197.8 312.4 197.8L312.4 197.8Q310.2 197.8 308.6 196.8Q306.9 195.8 306.0 194.0Q305.0 192.2 305.0 189.6L305.0 189.6L305.0 175.7L311.1 175.7L311.1 188.5Q311.1 190.5 312.1 191.6Q313.1 192.7 314.9 192.7L314.9 192.7Q316.0 192.7 316.9 192.2Q317.9 191.7 318.5 190.7Q319.0 189.7 319.0 188.3Z M341.8 168.5L348.0 168.5L348.0 197.5L341.8 197.5L341.8 168.5ZM362.1 186.7L358.1 191.3L358.1 184.0L359.0 184.0L366.0 175.7L372.9 175.7L363.5 186.7L362.1 186.7ZM358.6 197.5L352.6 197.5L352.6 168.5L358.6 168.5L358.6 197.5ZM373.3 197.5L366.2 197.5L359.8 188.0L363.8 183.8L373.3 197.5ZM381.6 197.5L375.7 197.5L375.7 168.5L381.7 168.5L381.7 179.4L381.9 179.4Q382.3 178.5 383.1 177.6Q383.8 176.7 385.0 176.1Q386.3 175.4 388.1 175.4L388.1 175.4Q390.5 175.4 392.5 176.7Q394.5 177.9 395.7 180.4Q396.9 182.9 396.9 186.7L396.9 186.7Q396.9 190.3 395.8 192.8Q394.6 195.3 392.6 196.6Q390.6 197.9 388.1 197.9L388.1 197.9Q386.3 197.9 385.1 197.3Q383.9 196.7 383.1 195.8Q382.3 195.0 381.9 194.1L381.9 194.1L381.6 194.1L381.6 197.5ZM381.6 186.6L381.6 186.6Q381.6 188.6 382.1 190.0Q382.7 191.5 383.7 192.3Q384.7 193.1 386.2 193.1L386.2 193.1Q387.6 193.1 388.7 192.3Q389.7 191.5 390.2 190.0Q390.8 188.5 390.8 186.6L390.8 186.6Q390.8 184.7 390.2 183.3Q389.7 181.9 388.7 181.1Q387.7 180.3 386.2 180.3L386.2 180.3Q384.7 180.3 383.7 181.0Q382.7 181.8 382.1 183.3Q381.6 184.7 381.6 186.6ZM406.9 198.0L406.9 198.0Q404.8 198.0 403.1 197.2Q401.5 196.5 400.6 195.1Q399.6 193.6 399.6 191.5L399.6 191.5Q399.6 189.6 400.3 188.4Q400.9 187.2 402.1 186.4Q403.3 185.7 404.7 185.3Q406.2 184.9 407.8 184.7L407.8 184.7Q409.7 184.5 410.9 184.4Q412.0 184.2 412.6 183.8Q413.1 183.5 413.1 182.8L413.1 182.8L413.1 182.7Q413.1 181.3 412.2 180.6Q411.4 179.9 409.9 179.9L409.9 179.9Q408.2 179.9 407.3 180.6Q406.3 181.3 406.0 182.4L406.0 182.4L400.4 181.9Q400.8 179.9 402.1 178.5Q403.3 177.0 405.3 176.2Q407.3 175.4 409.9 175.4L409.9 175.4Q411.7 175.4 413.4 175.9Q415.0 176.3 416.3 177.2Q417.6 178.1 418.4 179.5Q419.1 180.9 419.1 182.8L419.1 182.8L419.1 197.5L413.4 197.5L413.4 194.5L413.2 194.5Q412.7 195.5 411.8 196.3Q410.9 197.1 409.7 197.5Q408.5 198.0 406.9 198.0ZM408.6 193.8L408.6 193.8Q409.9 193.8 410.9 193.2Q412.0 192.7 412.6 191.8Q413.1 190.9 413.1 189.7L413.1 189.7L413.1 187.4Q412.9 187.6 412.4 187.8Q411.9 187.9 411.3 188.0Q410.7 188.2 410.0 188.2Q409.4 188.3 408.9 188.4L408.9 188.4Q407.9 188.6 407.1 188.9Q406.3 189.3 405.8 189.8Q405.4 190.4 405.4 191.3L405.4 191.3Q405.4 192.5 406.3 193.1Q407.2 193.8 408.6 193.8ZM423.5 168.5L429.6 168.5L429.6 197.5L423.5 197.5L423.5 168.5Z M443.2 197.5L443.2 168.5L450.7 168.5L458.8 188L459.1 188L467.1 168.5L474.7 168.5L474.7 197.5L468.7 197.5L468.7 178.6L468.5 178.6L461.0 197.4L456.9 197.4L449.4 178.5L449.1 178.5L449.1 197.5L443.2 197.5ZM485.5 198.0L485.5 198.0Q483.4 198.0 481.8 197.2Q480.2 196.5 479.2 195.1Q478.3 193.6 478.3 191.5L478.3 191.5Q478.3 189.6 479.0 188.4Q479.6 187.2 480.8 186.4Q481.9 185.7 483.4 185.3Q484.9 184.9 486.5 184.7L486.5 184.7Q488.4 184.5 489.6 184.4Q490.7 184.2 491.2 183.8Q491.8 183.5 491.8 182.8L491.8 182.8L491.8 182.7Q491.8 181.3 490.9 180.6Q490.1 179.9 488.5 179.9L488.5 179.9Q486.9 179.9 485.9 180.6Q485.0 181.3 484.7 182.4L484.7 182.4L479.1 181.9Q479.5 179.9 480.7 178.5Q482.0 177.0 484.0 176.2Q485.9 175.4 488.6 175.4L488.6 175.4Q490.4 175.4 492.0 175.9Q493.7 176.3 495.0 177.2Q496.3 178.1 497.1 179.5Q497.8 180.9 497.8 182.8L497.8 182.8L497.8 197.5L492.1 197.5L492.1 194.5L491.9 194.5Q491.4 195.5 490.5 196.3Q489.6 197.1 488.4 197.5Q487.2 198.0 485.5 198.0ZM487.3 193.8L487.3 193.8Q488.6 193.8 489.6 193.2Q490.6 192.7 491.2 191.8Q491.8 190.9 491.8 189.7L491.8 189.7L491.8 187.4Q491.5 187.6 491.0 187.8Q490.6 187.9 489.9 188.0Q489.3 188.2 488.7 188.2Q488.1 188.3 487.6 188.4L487.6 188.4Q486.5 188.6 485.7 188.9Q485.0 189.3 484.5 189.8Q484.1 190.4 484.1 191.3L484.1 191.3Q484.1 192.5 485.0 193.1Q485.9 193.8 487.3 193.8ZM516.2 188.3L516.2 188.3L516.2 175.7L522.2 175.7L522.2 197.5L516.4 197.5L516.4 193.6L516.2 193.6Q515.5 195.5 513.8 196.7Q512.0 197.8 509.6 197.8L509.6 197.8Q507.4 197.8 505.7 196.8Q504.1 195.8 503.1 194.0Q502.2 192.2 502.2 189.6L502.2 189.6L502.2 175.7L508.3 175.7L508.3 188.5Q508.3 190.5 509.3 191.6Q510.3 192.7 512.0 192.7L512.0 192.7Q513.1 192.7 514.1 192.2Q515.0 191.7 515.6 190.7Q516.2 189.7 516.2 188.3ZM526.8 168.5L532.8 168.5L532.8 197.5L526.8 197.5L526.8 168.5ZM543.5 198.0L543.5 198.0Q541.5 198.0 539.8 197.2Q538.2 196.5 537.2 195.1Q536.3 193.6 536.3 191.5L536.3 191.5Q536.3 189.6 537.0 188.4Q537.6 187.2 538.8 186.4Q539.9 185.7 541.4 185.3Q542.9 184.9 544.5 184.7L544.5 184.7Q546.4 184.5 547.6 184.4Q548.7 184.2 549.2 183.8Q549.8 183.5 549.8 182.8L549.8 182.8L549.8 182.7Q549.8 181.3 548.9 180.6Q548.1 179.9 546.5 179.9L546.5 179.9Q544.9 179.9 543.9 180.6Q543.0 181.3 542.7 182.4L542.7 182.4L537.1 181.9Q537.5 179.9 538.7 178.5Q540.0 177.0 542.0 176.2Q544.0 175.4 546.6 175.4L546.6 175.4Q548.4 175.4 550.1 175.9Q551.7 176.3 553.0 177.2Q554.3 178.1 555.1 179.5Q555.8 180.9 555.8 182.8L555.8 182.8L555.8 197.5L550.1 197.5L550.1 194.5L549.9 194.5Q549.4 195.5 548.5 196.3Q547.6 197.1 546.4 197.5Q545.2 198.0 543.5 198.0ZM545.3 193.8L545.3 193.8Q546.6 193.8 547.6 193.2Q548.7 192.7 549.2 191.8Q549.8 190.9 549.8 189.7L549.8 189.7L549.8 187.4Q549.5 187.6 549.0 187.8Q548.6 187.9 547.9 188.0Q547.3 188.2 546.7 188.2Q546.1 188.3 545.6 188.4L545.6 188.4Q544.5 188.6 543.8 188.9Q543.0 189.3 542.5 189.8Q542.1 190.4 542.1 191.3L542.1 191.3Q542.1 192.5 543.0 193.1Q543.9 193.8 545.3 193.8ZM566.3 184.9L566.3 184.9L566.3 197.5L560.2 197.5L560.2 175.7L566.0 175.7L566.0 179.6L566.2 179.6Q567.0 177.7 568.7 176.6Q570.4 175.4 572.8 175.4L572.8 175.4Q575.1 175.4 576.8 176.4Q578.4 177.4 579.4 179.3Q580.3 181.1 580.3 183.7L580.3 183.7L580.3 197.5L574.3 197.5L574.3 184.7Q574.3 182.7 573.2 181.6Q572.2 180.5 570.4 180.5L570.4 180.5Q569.2 180.5 568.2 181.0Q567.3 181.5 566.8 182.5Q566.3 183.5 566.3 184.9ZM591.0 198.0L591.0 198.0Q588.9 198.0 587.3 197.2Q585.6 196.5 584.7 195.1Q583.7 193.6 583.7 191.5L583.7 191.5Q583.7 189.6 584.4 188.4Q585.1 187.2 586.2 186.4Q587.4 185.7 588.8 185.3Q590.3 184.9 591.9 184.7L591.9 184.7Q593.8 184.5 595.0 184.4Q596.2 184.2 596.7 183.8Q597.2 183.5 597.2 182.8L597.2 182.8L597.2 182.7Q597.2 181.3 596.4 180.6Q595.5 179.9 594.0 179.9L594.0 179.9Q592.3 179.9 591.4 180.6Q590.4 181.3 590.1 182.4L590.1 182.4L584.5 181.9Q584.9 179.9 586.2 178.5Q587.4 177.0 589.4 176.2Q591.4 175.4 594.0 175.4L594.0 175.4Q595.8 175.4 597.5 175.9Q599.2 176.3 600.5 177.2Q601.8 178.1 602.5 179.5Q603.3 180.9 603.3 182.8L603.3 182.8L603.3 197.5L597.5 197.5L597.5 194.5L597.4 194.5Q596.8 195.5 596.0 196.3Q595.1 197.1 593.8 197.5Q592.6 198.0 591.0 198.0ZM592.7 193.8L592.7 193.8Q594.0 193.8 595.1 193.2Q596.1 192.7 596.7 191.8Q597.3 190.9 597.3 189.7L597.3 189.7L597.3 187.4Q597.0 187.6 596.5 187.8Q596.0 187.9 595.4 188.0Q594.8 188.2 594.2 188.2Q593.6 188.3 593.1 188.4L593.1 188.4Q592.0 188.6 591.2 188.9Q590.4 189.3 590.0 189.8Q589.5 190.4 589.5 191.3L589.5 191.3Q589.5 192.5 590.4 193.1Q591.3 193.8 592.7 193.8Z "/><mask id="satori_om-id-1-1"><rect x="301" y="211" width="198" height="34" fill="#fff"/></mask><g opacity="0.9"></g><path fill="white" d="M306.2 236.5L302.5 236.5L302.5 219.1L309.4 219.1Q311.4 219.1 312.8 219.8Q314.2 220.6 314.9 221.9Q315.7 223.2 315.7 225.0L315.7 225.0Q315.7 226.7 314.9 228.1Q314.2 229.4 312.7 230.1Q311.3 230.9 309.3 230.9L309.3 230.9L304.9 230.9L304.9 227.9L308.7 227.9Q309.8 227.9 310.5 227.5Q311.2 227.2 311.5 226.5Q311.9 225.8 311.9 225.0L311.9 225.0Q311.9 224.1 311.5 223.5Q311.2 222.8 310.5 222.5Q309.8 222.1 308.7 222.1L308.7 222.1L306.2 222.1L306.2 236.5ZM323.4 236.8L323.4 236.8Q321.4 236.8 319.9 236.0Q318.5 235.1 317.7 233.6Q316.9 232.1 316.9 230.0L316.9 230.0Q316.9 228.0 317.7 226.5Q318.5 225.0 319.9 224.1Q321.3 223.3 323.3 223.3L323.3 223.3Q324.6 223.3 325.7 223.7Q326.8 224.1 327.7 224.9Q328.5 225.7 329.0 227.0Q329.4 228.2 329.4 229.9L329.4 229.9L329.4 230.9L318.4 230.9L318.4 228.7L326.0 228.7Q326.0 227.9 325.7 227.3Q325.3 226.7 324.7 226.3Q324.1 226.0 323.3 226.0L323.3 226.0Q322.5 226.0 321.9 226.4Q321.2 226.7 320.9 227.4Q320.5 228.0 320.5 228.8L320.5 228.8L320.5 230.9Q320.5 231.9 320.9 232.6Q321.2 233.3 321.9 233.7Q322.6 234.1 323.5 234.1L323.5 234.1Q324.1 234.1 324.6 233.9Q325.1 233.7 325.4 233.4Q325.8 233.1 326.0 232.6L326.0 232.6L329.4 232.8Q329.1 234.0 328.3 234.9Q327.5 235.8 326.3 236.3Q325.0 236.8 323.4 236.8ZM335.1 236.5L331.5 236.5L331.5 223.4L335.0 223.4L335.0 225.7L335.1 225.7Q335.5 224.5 336.3 223.9Q337.2 223.2 338.3 223.2L338.3 223.2Q338.6 223.2 338.9 223.3Q339.2 223.3 339.4 223.4L339.4 223.4L339.4 226.6Q339.2 226.5 338.7 226.5Q338.3 226.4 337.9 226.4L337.9 226.4Q337.1 226.4 336.5 226.7Q335.8 227.1 335.5 227.7Q335.1 228.3 335.1 229.1L335.1 229.1L335.1 236.5ZM351.9 227.2L351.9 227.2L348.5 227.4Q348.4 226.9 348.2 226.6Q347.9 226.3 347.4 226.0Q347.0 225.8 346.3 225.8L346.3 225.8Q345.5 225.8 344.9 226.2Q344.3 226.5 344.3 227.1L344.3 227.1Q344.3 227.6 344.7 227.9Q345.1 228.3 346.0 228.4L346.0 228.4L348.4 228.9Q350.3 229.3 351.2 230.2Q352.2 231.1 352.2 232.5L352.2 232.5Q352.2 233.8 351.4 234.7Q350.6 235.7 349.3 236.2Q348.0 236.8 346.3 236.8L346.3 236.8Q343.7 236.8 342.2 235.7Q340.7 234.6 340.4 232.7L340.4 232.7L344.0 232.5Q344.1 233.3 344.7 233.8Q345.4 234.2 346.3 234.2L346.3 234.2Q347.3 234.2 347.9 233.8Q348.5 233.4 348.5 232.8L348.5 232.8Q348.5 232.3 348.0 232.0Q347.6 231.7 346.8 231.5L346.8 231.5L344.5 231.1Q342.6 230.7 341.7 229.8Q340.7 228.8 340.7 227.3L340.7 227.3Q340.7 226.1 341.4 225.2Q342.1 224.3 343.4 223.8Q344.6 223.3 346.3 223.3L346.3 223.3Q348.8 223.3 350.2 224.3Q351.6 225.4 351.9 227.2ZM360.0 236.8L360.0 236.8Q358.1 236.8 356.6 235.9Q355.2 235.1 354.4 233.6Q353.6 232.0 353.6 230.0L353.6 230.0Q353.6 228.0 354.4 226.5Q355.2 225.0 356.6 224.1Q358.1 223.3 360.0 223.3L360.0 223.3Q362.0 223.3 363.5 224.1Q364.9 225.0 365.7 226.5Q366.5 228.0 366.5 230.0L366.5 230.0Q366.5 232.0 365.7 233.6Q364.9 235.1 363.5 235.9Q362.0 236.8 360.0 236.8ZM360.1 234.0L360.1 234.0Q361.0 234.0 361.6 233.5Q362.2 232.9 362.5 232.0Q362.8 231.1 362.8 230.0L362.8 230.0Q362.8 228.9 362.5 228.0Q362.2 227.1 361.6 226.6Q361.0 226.0 360.1 226.0L360.1 226.0Q359.1 226.0 358.5 226.6Q357.9 227.1 357.6 228.0Q357.3 228.9 357.3 230.0L357.3 230.0Q357.3 231.1 357.6 232.0Q357.9 232.9 358.5 233.5Q359.1 234.0 360.1 234.0ZM372.2 229.0L372.2 229.0L372.2 236.5L368.5 236.5L368.5 223.4L372.0 223.4L372.0 225.7L372.2 225.7Q372.6 224.6 373.6 223.9Q374.6 223.3 376.1 223.3L376.1 223.3Q377.5 223.3 378.5 223.9Q379.5 224.5 380.0 225.6Q380.6 226.7 380.6 228.2L380.6 228.2L380.6 236.5L377.0 236.5L377.0 228.8Q377.0 227.6 376.4 227.0Q375.7 226.3 374.6 226.3L374.6 226.3Q373.9 226.3 373.4 226.6Q372.8 226.9 372.5 227.5Q372.2 228.1 372.2 229.0ZM386.9 236.8L386.9 236.8Q385.6 236.8 384.6 236.3Q383.7 235.9 383.1 235.0Q382.5 234.2 382.5 232.9L382.5 232.9Q382.5 231.8 382.9 231.0Q383.3 230.3 384.0 229.8Q384.7 229.4 385.6 229.2Q386.5 228.9 387.4 228.8L387.4 228.8Q388.6 228.7 389.3 228.6Q390.0 228.5 390.3 228.3Q390.6 228.1 390.6 227.7L390.6 227.7L390.6 227.6Q390.6 226.8 390.1 226.4Q389.6 225.9 388.7 225.9L388.7 225.9Q387.7 225.9 387.1 226.3Q386.5 226.8 386.3 227.4L386.3 227.4L383.0 227.2Q383.2 226.0 384.0 225.1Q384.7 224.2 385.9 223.7Q387.1 223.3 388.7 223.3L388.7 223.3Q389.8 223.3 390.8 223.5Q391.8 223.8 392.6 224.3Q393.3 224.9 393.8 225.7Q394.2 226.5 394.2 227.7L394.2 227.7L394.2 236.5L390.8 236.5L390.8 234.7L390.7 234.7Q390.4 235.3 389.9 235.8Q389.3 236.3 388.6 236.5Q387.8 236.8 386.9 236.8ZM387.9 234.3L387.9 234.3Q388.7 234.3 389.3 233.9Q389.9 233.6 390.3 233.1Q390.6 232.5 390.6 231.8L390.6 231.8L390.6 230.5Q390.5 230.6 390.2 230.7Q389.9 230.7 389.5 230.8Q389.1 230.9 388.8 230.9Q388.4 231.0 388.1 231.0L388.1 231.0Q387.5 231.1 387.0 231.3Q386.5 231.6 386.3 231.9Q386.0 232.2 386.0 232.8L386.0 232.8Q386.0 233.5 386.5 233.9Q387.1 234.3 387.9 234.3ZM396.7 219.1L400.4 219.1L400.4 236.5L396.7 236.5L396.7 219.1Z M414.8 236.5L411.0 236.5L407.4 223.4L411.1 223.4L413.1 232.2L413.3 232.2L415.4 223.4L419.0 223.4L421.1 232.2L421.2 232.2L423.2 223.4L426.9 223.4L423.3 236.5L419.5 236.5L417.3 228.3L417.1 228.3L414.8 236.5ZM434.1 236.8L434.1 236.8Q432.1 236.8 430.7 236.0Q429.2 235.1 428.4 233.6Q427.7 232.1 427.7 230.0L427.7 230.0Q427.7 228.0 428.4 226.5Q429.2 225.0 430.6 224.1Q432.1 223.3 434.0 223.3L434.0 223.3Q435.3 223.3 436.4 223.7Q437.5 224.1 438.4 224.9Q439.2 225.7 439.7 227.0Q440.2 228.2 440.2 229.9L440.2 229.9L440.2 230.9L429.1 230.9L429.1 228.7L436.7 228.7Q436.7 227.9 436.4 227.3Q436.1 226.7 435.5 226.3Q434.9 226.0 434.1 226.0L434.1 226.0Q433.2 226.0 432.6 226.4Q432.0 226.7 431.6 227.4Q431.2 228.0 431.2 228.8L431.2 228.8L431.2 230.9Q431.2 231.9 431.6 232.6Q432.0 233.3 432.6 233.7Q433.3 234.1 434.2 234.1L434.2 234.1Q434.8 234.1 435.3 233.9Q435.8 233.7 436.2 233.4Q436.5 233.1 436.7 232.6L436.7 232.6L440.1 232.8Q439.8 234.0 439.0 234.9Q438.2 235.8 437.0 236.3Q435.8 236.8 434.1 236.8ZM445.9 236.5L442.3 236.5L442.3 219.1L445.9 219.1L445.9 225.6L446.0 225.6Q446.3 225.1 446.7 224.6Q447.2 224.0 447.9 223.6Q448.6 223.3 449.7 223.3L449.7 223.3Q451.2 223.3 452.4 224.0Q453.6 224.8 454.3 226.3Q455.0 227.7 455.0 230.0L455.0 230.0Q455.0 232.2 454.3 233.7Q453.6 235.2 452.4 236.0Q451.2 236.7 449.7 236.7L449.7 236.7Q448.7 236.7 447.9 236.4Q447.2 236.0 446.7 235.5Q446.3 235.0 446.0 234.4L446.0 234.4L445.9 234.4L445.9 236.5ZM445.8 230.0L445.8 230.0Q445.8 231.1 446.2 232.0Q446.5 232.9 447.1 233.4Q447.7 233.9 448.6 233.9L448.6 233.9Q449.5 233.9 450.1 233.4Q450.7 232.9 451.0 232.0Q451.3 231.1 451.3 230.0L451.3 230.0Q451.3 228.8 451.0 228.0Q450.7 227.1 450.1 226.6Q449.5 226.2 448.6 226.2L448.6 226.2Q447.7 226.2 447.1 226.6Q446.5 227.1 446.2 228.0Q445.8 228.8 445.8 230.0ZM468.0 227.2L468.0 227.2L464.7 227.4Q464.6 226.9 464.3 226.6Q464.1 226.3 463.6 226.0Q463.1 225.8 462.5 225.8L462.5 225.8Q461.7 225.8 461.1 226.2Q460.5 226.5 460.5 227.1L460.5 227.1Q460.5 227.6 460.9 227.9Q461.3 228.3 462.2 228.4L462.2 228.4L464.5 228.9Q466.4 229.3 467.4 230.2Q468.3 231.1 468.3 232.5L468.3 232.5Q468.3 233.8 467.6 234.7Q466.8 235.7 465.5 236.2Q464.2 236.8 462.5 236.8L462.5 236.8Q459.9 236.8 458.4 235.7Q456.8 234.6 456.6 232.7L456.6 232.7L460.1 232.5Q460.3 233.3 460.9 233.8Q461.5 234.2 462.5 234.2L462.5 234.2Q463.5 234.2 464.0 233.8Q464.6 233.4 464.6 232.8L464.6 232.8Q464.6 232.3 464.2 232.0Q463.8 231.7 463.0 231.5L463.0 231.5L460.7 231.1Q458.8 230.7 457.8 229.8Q456.9 228.8 456.9 227.3L456.9 227.3Q456.9 226.1 457.6 225.2Q458.3 224.3 459.5 223.8Q460.8 223.3 462.4 223.3L462.4 223.3Q464.9 223.3 466.4 224.3Q467.8 225.4 468.0 227.2ZM473.9 236.5L470.3 236.5L470.3 223.4L473.9 223.4L473.9 236.5ZM472.1 221.7L472.1 221.7Q471.3 221.7 470.7 221.2Q470.2 220.7 470.2 219.9L470.2 219.9Q470.2 219.2 470.7 218.6Q471.3 218.1 472.1 218.1L472.1 218.1Q472.9 218.1 473.5 218.6Q474.1 219.2 474.1 219.9L474.1 219.9Q474.1 220.7 473.5 221.2Q472.9 221.7 472.1 221.7ZM475.6 223.4L483.5 223.4L483.5 226.2L475.6 226.2L475.6 223.4ZM477.4 233.0L477.4 220.3L481.0 220.3L481.0 232.5Q481.0 233.0 481.2 233.3Q481.3 233.6 481.6 233.7Q481.9 233.8 482.2 233.8L482.2 233.8Q482.5 233.8 482.7 233.7Q483.0 233.7 483.1 233.7L483.1 233.7L483.7 236.4Q483.4 236.5 482.9 236.6Q482.4 236.7 481.7 236.7L481.7 236.7Q480.4 236.8 479.4 236.4Q478.5 236.0 477.9 235.1Q477.4 234.3 477.4 233.0L477.4 233.0ZM491.3 236.8L491.3 236.8Q489.3 236.8 487.9 236.0Q486.4 235.1 485.6 233.6Q484.8 232.1 484.8 230.0L484.8 230.0Q484.8 228.0 485.6 226.5Q486.4 225.0 487.8 224.1Q489.3 223.3 491.2 223.3L491.2 223.3Q492.5 223.3 493.6 223.7Q494.7 224.1 495.6 224.9Q496.4 225.7 496.9 227.0Q497.3 228.2 497.3 229.9L497.3 229.9L497.3 230.9L486.3 230.9L486.3 228.7L493.9 228.7Q493.9 227.9 493.6 227.3Q493.2 226.7 492.6 226.3Q492.0 226.0 491.3 226.0L491.3 226.0Q490.4 226.0 489.8 226.4Q489.2 226.7 488.8 227.4Q488.4 228.0 488.4 228.8L488.4 228.8L488.4 230.9Q488.4 231.9 488.8 232.6Q489.2 233.3 489.8 233.7Q490.5 234.1 491.4 234.1L491.4 234.1Q492.0 234.1 492.5 233.9Q493.0 233.7 493.4 233.4Q493.7 233.1 493.9 232.6L493.9 232.6L497.3 232.8Q497.0 234.0 496.2 234.9Q495.4 235.8 494.2 236.3Q493.0 236.8 491.3 236.8Z " opacity="0.9"/></svg>